<svg width="16" height="12" viewBox="0 0 16 12" fill="none" xmlns="http://www.w3.org/2000/svg">
<path fill-rule="evenodd" clip-rule="evenodd" d="M14 8H2C1.73478 8 1.48043 8.10536 1.29289 8.29289C1.10536 8.48043 1 8.73478 1 9V10C1 10.2652 1.10536 10.5196 1.29289 10.7071C1.48043 10.8946 1.73478 11 2 11H14C14.2652 11 14.5196 10.8946 14.7071 10.7071C14.8946 10.5196 15 10.2652 15 10V9C15 8.73478 14.8946 8.48043 14.7071 8.29289C14.5196 8.10536 14.2652 8 14 8ZM2 7C1.46957 7 0.960859 7.21071 0.585786 7.58579C0.210714 7.96086 0 8.46957 0 9L0 10C0 10.5304 0.210714 11.0391 0.585786 11.4142C0.960859 11.7893 1.46957 12 2 12H14C14.5304 12 15.0391 11.7893 15.4142 11.4142C15.7893 11.0391 16 10.5304 16 10V9C16 8.46957 15.7893 7.96086 15.4142 7.58579C15.0391 7.21071 14.5304 7 14 7H2Z" fill="#080A39"/>
<path d="M5 9.5C5 9.63261 4.94732 9.75979 4.85355 9.85355C4.75979 9.94732 4.63261 10 4.5 10C4.36739 10 4.24021 9.94732 4.14645 9.85355C4.05268 9.75979 4 9.63261 4 9.5C4 9.36739 4.05268 9.24021 4.14645 9.14645C4.24021 9.05268 4.36739 9 4.5 9C4.63261 9 4.75979 9.05268 4.85355 9.14645C4.94732 9.24021 5 9.36739 5 9.5ZM3 9.5C3 9.63261 2.94732 9.75979 2.85355 9.85355C2.75979 9.94732 2.63261 10 2.5 10C2.36739 10 2.24021 9.94732 2.14645 9.85355C2.05268 9.75979 2 9.63261 2 9.5C2 9.36739 2.05268 9.24021 2.14645 9.14645C2.24021 9.05268 2.36739 9 2.5 9C2.63261 9 2.75979 9.05268 2.85355 9.14645C2.94732 9.24021 3 9.36739 3 9.5Z" fill="#080A39"/>
<path fill-rule="evenodd" clip-rule="evenodd" d="M14 1H2C1.73478 1 1.48043 1.10536 1.29289 1.29289C1.10536 1.48043 1 1.73478 1 2V3C1 3.26522 1.10536 3.51957 1.29289 3.70711C1.48043 3.89464 1.73478 4 2 4H14C14.2652 4 14.5196 3.89464 14.7071 3.70711C14.8946 3.51957 15 3.26522 15 3V2C15 1.73478 14.8946 1.48043 14.7071 1.29289C14.5196 1.10536 14.2652 1 14 1ZM2 0C1.46957 0 0.960859 0.210714 0.585786 0.585786C0.210714 0.960859 0 1.46957 0 2L0 3C0 3.53043 0.210714 4.03914 0.585786 4.41421C0.960859 4.78929 1.46957 5 2 5H14C14.5304 5 15.0391 4.78929 15.4142 4.41421C15.7893 4.03914 16 3.53043 16 3V2C16 1.46957 15.7893 0.960859 15.4142 0.585786C15.0391 0.210714 14.5304 0 14 0H2Z" fill="#080A39"/>
<path d="M5 2.5C5 2.63261 4.94732 2.75979 4.85355 2.85355C4.75979 2.94732 4.63261 3 4.5 3C4.36739 3 4.24021 2.94732 4.14645 2.85355C4.05268 2.75979 4 2.63261 4 2.5C4 2.36739 4.05268 2.24021 4.14645 2.14645C4.24021 2.05268 4.36739 2 4.5 2C4.63261 2 4.75979 2.05268 4.85355 2.14645C4.94732 2.24021 5 2.36739 5 2.5ZM3 2.5C3 2.63261 2.94732 2.75979 2.85355 2.85355C2.75979 2.94732 2.63261 3 2.5 3C2.36739 3 2.24021 2.94732 2.14645 2.85355C2.05268 2.75979 2 2.63261 2 2.5C2 2.36739 2.05268 2.24021 2.14645 2.14645C2.24021 2.05268 2.36739 2 2.5 2C2.63261 2 2.75979 2.05268 2.85355 2.14645C2.94732 2.24021 3 2.36739 3 2.5Z" fill="#080A39"/>
<path fill-rule="evenodd" clip-rule="evenodd" d="M3 7V5H4V7H3ZM12 7V5H13V7H12Z" fill="#080A39"/>
</svg>
