<svg width="106" height="12" viewBox="0 0 106 12" fill="none" xmlns="http://www.w3.org/2000/svg">
<path d="M0.092 11V1.088H2.43L7.036 8.508H7.064V1.088H8.828V11H6.588L1.884 3.342H1.856V11H0.092ZM19.4718 11L23.7838 1.088H25.3098L29.5798 11H27.5638L26.6398 8.732H22.3418L21.4458 11H19.4718ZM22.9438 7.22H26.0238L24.4978 3.188L22.9438 7.22ZM40.2206 11V1.088H42.9786L45.5546 8.13H45.5966L48.1446 1.088H50.9166V11H49.1666V3.034H49.1386L46.1286 11H44.8966L41.9286 3.034H41.9006V11H40.2206ZM62.7595 11V1.088H64.5235V11H62.7595ZM76.3707 11V1.088H78.7087L83.3147 8.508H83.3427V1.088H85.1067V11H82.8667L78.1627 3.342H78.1347V11H76.3707ZM105.635 5.344V10.482C104.561 10.9953 103.315 11.252 101.897 11.252C100.301 11.252 98.9985 10.7667 97.9905 9.796C96.9825 8.82533 96.4785 7.56533 96.4785 6.016C96.4785 4.45733 96.9825 3.20667 97.9905 2.264C99.0078 1.312 100.296 0.836 101.855 0.836C102.62 0.836 103.334 0.948 103.997 1.172C104.669 1.396 105.21 1.69933 105.621 2.082L104.403 3.398C104.141 3.10867 103.782 2.87067 103.325 2.684C102.867 2.488 102.382 2.39 101.869 2.39C100.842 2.39 100.011 2.73533 99.3765 3.426C98.7418 4.11667 98.4245 4.98 98.4245 6.016C98.4245 7.08933 98.7418 7.96667 99.3765 8.648C100.021 9.32933 100.879 9.67 101.953 9.67C102.709 9.67 103.367 9.55333 103.927 9.32V6.8H101.841V5.344H105.635Z" fill="black"/>
</svg>
