<svg width="14" height="14" viewBox="0 0 14 14" fill="none" xmlns="http://www.w3.org/2000/svg">
<path fill-rule="evenodd" clip-rule="evenodd" d="M7 13.125C8.62445 13.125 10.1824 12.4797 11.331 11.331C12.4797 10.1824 13.125 8.62445 13.125 7C13.125 5.37555 12.4797 3.81763 11.331 2.66897C10.1824 1.52031 8.62445 0.875 7 0.875C5.37555 0.875 3.81763 1.52031 2.66897 2.66897C1.52031 3.81763 0.875 5.37555 0.875 7C0.875 8.62445 1.52031 10.1824 2.66897 11.331C3.81763 12.4797 5.37555 13.125 7 13.125ZM7 14C8.85652 14 10.637 13.2625 11.9497 11.9497C13.2625 10.637 14 8.85652 14 7C14 5.14348 13.2625 3.36301 11.9497 2.05025C10.637 0.737498 8.85652 0 7 0C5.14348 0 3.36301 0.737498 2.05025 2.05025C0.737498 3.36301 0 5.14348 0 7C0 8.85652 0.737498 10.637 2.05025 11.9497C3.36301 13.2625 5.14348 14 7 14Z" fill="#080A39"/>
<path d="M4.59784 5.06275C4.59664 5.09101 4.60124 5.11921 4.61134 5.14563C4.62145 5.17204 4.63685 5.19611 4.6566 5.21636C4.67635 5.2366 4.70004 5.25259 4.7262 5.26334C4.75236 5.27409 4.78044 5.27938 4.80872 5.27888H5.53059C5.65134 5.27888 5.74759 5.18 5.76334 5.06013C5.84209 4.48613 6.23584 4.06788 6.93759 4.06788C7.53784 4.06788 8.08734 4.368 8.08734 5.08988C8.08734 5.6455 7.76009 5.901 7.24297 6.2895C6.65409 6.71738 6.18772 7.217 6.22097 8.02813L6.22359 8.218C6.22451 8.27541 6.24796 8.33015 6.28889 8.37042C6.32981 8.41069 6.38493 8.43326 6.44234 8.43325H7.15197C7.20998 8.43325 7.26562 8.4102 7.30665 8.36918C7.34767 8.32816 7.37072 8.27252 7.37072 8.2145V8.12263C7.37072 7.49438 7.60959 7.3115 8.25447 6.82238C8.78734 6.41725 9.34297 5.9675 9.34297 5.02338C9.34297 3.70125 8.22647 3.0625 7.00409 3.0625C5.89547 3.0625 4.68097 3.57875 4.59784 5.06275ZM5.96022 10.1054C5.96022 10.5718 6.33209 10.9165 6.84397 10.9165C7.37684 10.9165 7.74347 10.5718 7.74347 10.1054C7.74347 9.62238 7.37597 9.28288 6.84309 9.28288C6.33209 9.28288 5.96022 9.62238 5.96022 10.1054Z" fill="#080A39"/>
</svg>
