<svg width="15" height="17" xmlns="http://www.w3.org/2000/svg" xml:space="preserve" version="1.1">

 <g>
  <title>Layer 1</title>
  <path id="svg_1" fill="#080A39" clip-rule="evenodd" fill-rule="evenodd" d="m5.66952,14.64381l3.5,0c0,0 -0.09,1.75 -1.75,1.75s-1.75,-1.75 -1.75,-1.75z" class="st0"/>
  <path id="svg_2" fill="#080A39" d="m12.90952,12.81381c-0.79,-1.73 -1.08,-4.91 -1.08,-5.76c0,-1.11 -0.35,-2.18 -1,-3.04c-0.64,-0.86 -1.54,-1.45 -2.54,-1.67c0.01,-0.13 0,-0.27 -0.04,-0.4c-0.04,-0.13 -0.1,-0.24 -0.18,-0.34c-0.08,-0.1 -0.18,-0.18 -0.3,-0.23c-0.1,-0.05 -0.23,-0.07 -0.35,-0.07c-0.12,0 -0.25,0.03 -0.36,0.08c-0.11,0.05 -0.21,0.13 -0.3,0.23c-0.08,0.1 -0.15,0.22 -0.18,0.34c-0.04,0.13 -0.05,0.27 -0.04,0.4c-2.01,0.44 -3.53,2.38 -3.53,4.7c0,0.84 -0.28,4.03 -1.08,5.76c-0.2,0.43 -0.42,0.77 -0.69,0.96l12.36,0c-0.27,-0.19 -0.49,-0.53 -0.69,-0.96zm-10.01,0c0.25,-0.66 0.44,-1.43 0.59,-2.17c0.29,-1.48 0.41,-2.99 0.41,-3.59c0,-0.89 0.28,-1.74 0.8,-2.43c0.52,-0.69 1.23,-1.16 2.03,-1.33l0.7,-0.15l0,0l0.7,0.16c0.8,0.18 1.51,0.65 2.03,1.33c0.52,0.69 0.8,1.54 0.8,2.43c0,0.6 0.12,2.11 0.41,3.59c0.14,0.74 0.33,1.5 0.59,2.17l-9.06,0l0,-0.01z" class="st1"/>
 </g>
</svg>