<svg width="29" height="32" viewBox="0 0 29 32" fill="none" xmlns="http://www.w3.org/2000/svg">
<path d="M10.5 31.002C11.2956 31.002 12.0587 30.6859 12.6213 30.1233C13.1839 29.5607 13.5 28.7976 13.5 28.002H7.5C7.5 28.7976 7.81607 29.5607 8.37868 30.1233C8.94129 30.6859 9.70435 31.002 10.5 31.002Z" fill="#080A39"/>
<path fill-rule="evenodd" clip-rule="evenodd" d="M10.5 9.87831L9.3045 10.1198C7.94844 10.3961 6.7295 11.1325 5.85398 12.2042C4.97846 13.276 4.50015 14.6174 4.5 16.0013C4.5 16.9433 4.299 19.2968 3.8115 21.6143C3.5715 22.7648 3.2475 23.9633 2.817 25.0013H18.183C17.7525 23.9633 17.43 22.7663 17.1885 21.6143C16.701 19.2968 16.5 16.9433 16.5 16.0013C16.4995 14.6176 16.021 13.2766 15.1455 12.2052C14.2701 11.1337 13.0513 10.3976 11.6955 10.1213L10.5 9.87681V9.87831ZM19.83 25.0013C20.1645 25.6718 20.5515 26.2028 21 26.5013H0C0.4485 26.2028 0.8355 25.6718 1.17 25.0013C2.52 22.3013 3 17.3213 3 16.0013C3 12.3713 5.58 9.34131 9.0075 8.64981C8.98656 8.44124 9.00958 8.2306 9.07505 8.03147C9.14052 7.83234 9.24701 7.64915 9.38763 7.4937C9.52826 7.33825 9.6999 7.214 9.8915 7.12897C10.0831 7.04393 10.2904 7 10.5 7C10.7096 7 10.9169 7.04393 11.1085 7.12897C11.3001 7.214 11.4717 7.33825 11.6124 7.4937C11.753 7.64915 11.8595 7.83234 11.9249 8.03147C11.9904 8.2306 12.0134 8.44124 11.9925 8.64981C13.6879 8.99466 15.2121 9.91485 16.3069 11.2546C17.4016 12.5943 17.9998 14.2712 18 16.0013C18 17.3213 18.48 22.3013 19.83 25.0013Z" fill="#080A39"/>
<circle cx="20" cy="9" r="9" fill="#7B82FF"/>
<path d="M19.79 13V7.38L18.39 8.53L17.69 7.7L19.9 5.92H20.99V13H19.79Z" fill="white"/>
</svg>
