<svg width="18" height="22" viewBox="0 0 18 22" fill="none" xmlns="http://www.w3.org/2000/svg">
<path fill-rule="evenodd" clip-rule="evenodd" d="M-2.41495e-07 20.2513C-2.43867e-07 20.4503 0.0790173 20.641 0.21967 20.7817C0.360322 20.9223 0.551087 21.0013 0.75 21.0013L7.95 21.0013C8.44246 21.0013 8.93009 20.9043 9.38506 20.7159C9.84003 20.5274 10.2534 20.2512 10.6016 19.903C10.9499 19.5548 11.2261 19.1414 11.4145 18.6864C11.603 18.2314 11.7 17.7438 11.7 17.2513L11.7 2.56184L16.719 7.58234C16.8598 7.72317 17.0508 7.80229 17.25 7.80229C17.4492 7.80229 17.6402 7.72317 17.781 7.58234C17.9218 7.44151 18.0009 7.2505 18.0009 7.05134C18.0009 6.85218 17.9218 6.66117 17.781 6.52034L11.481 0.220341C11.4113 0.150496 11.3286 0.0950817 11.2374 0.057272C11.1463 0.0194623 11.0487 1.31754e-07 10.95 1.30577e-07C10.8513 1.29401e-07 10.7537 0.0194623 10.6625 0.057272C10.5714 0.0950817 10.4887 0.150496 10.419 0.220341L4.419 6.22034C4.27817 6.36117 4.19905 6.55218 4.19905 6.75134C4.19905 6.9505 4.27817 7.14151 4.419 7.28234C4.55983 7.42317 4.75084 7.50229 4.95 7.50229C5.14916 7.50229 5.34017 7.42317 5.481 7.28234L10.2 2.56184L10.2 17.2513C10.2 17.8481 9.96295 18.4204 9.54099 18.8423C9.11903 19.2643 8.54674 19.5013 7.95 19.5013L0.75 19.5013C0.551087 19.5013 0.360322 19.5804 0.21967 19.721C0.0790174 19.8617 -2.39123e-07 20.0524 -2.41495e-07 20.2513Z" fill="#7B82FF"/>
</svg>
