<svg width="10" height="10" viewBox="0 0 10 10" fill="none" xmlns="http://www.w3.org/2000/svg">
<path fill-rule="evenodd" clip-rule="evenodd" d="M1.24264 0.758336C1.40339 0.59759 1.6214 0.507285 1.84873 0.507285C2.07606 0.507285 2.29408 0.59759 2.45482 0.758336L5.48528 3.78879L8.51574 0.758336C8.67648 0.59759 8.8945 0.507284 9.12183 0.507284C9.34916 0.507284 9.56718 0.59759 9.72792 0.758336C9.88867 0.919081 9.97897 1.1371 9.97897 1.36443C9.97897 1.59176 9.88867 1.80977 9.72792 1.97052L6.69746 5.00098L9.72792 8.03143C9.88867 8.19218 9.97897 8.4102 9.97897 8.63753C9.97897 8.86485 9.88867 9.08287 9.72792 9.24362C9.56718 9.40436 9.34916 9.49467 9.12183 9.49467C8.8945 9.49467 8.67648 9.40436 8.51574 9.24362L5.48528 6.21316L2.45482 9.24362C2.29408 9.40436 2.07606 9.49467 1.84873 9.49467C1.6214 9.49467 1.40339 9.40436 1.24264 9.24362C1.0819 9.08287 0.99159 8.86485 0.99159 8.63753C0.99159 8.4102 1.0819 8.19218 1.24264 8.03143L4.2731 5.00098L1.24264 1.97052C1.0819 1.80977 0.99159 1.59176 0.99159 1.36443C0.99159 1.1371 1.0819 0.919081 1.24264 0.758336V0.758336Z" fill="#7B82FF"/>
</svg>
