<svg width="12" height="12" viewBox="0 0 12 12" fill="none" xmlns="http://www.w3.org/2000/svg">
<path fill-rule="evenodd" clip-rule="evenodd" d="M6 11.25C7.39239 11.25 8.72774 10.6969 9.71231 9.71231C10.6969 8.72774 11.25 7.39239 11.25 6C11.25 4.60761 10.6969 3.27226 9.71231 2.28769C8.72774 1.30312 7.39239 0.75 6 0.75C4.60761 0.75 3.27226 1.30312 2.28769 2.28769C1.30312 3.27226 0.75 4.60761 0.75 6C0.75 7.39239 1.30312 8.72774 2.28769 9.71231C3.27226 10.6969 4.60761 11.25 6 11.25ZM6 12C7.5913 12 9.11742 11.3679 10.2426 10.2426C11.3679 9.11742 12 7.5913 12 6C12 4.4087 11.3679 2.88258 10.2426 1.75736C9.11742 0.632141 7.5913 0 6 0C4.4087 0 2.88258 0.632141 1.75736 1.75736C0.632141 2.88258 0 4.4087 0 6C0 7.5913 0.632141 9.11742 1.75736 10.2426C2.88258 11.3679 4.4087 12 6 12Z" fill="#9292A6"/>
<path d="M4.4884 4.08392L4.52377 4.04857L4.52378 4.04859C4.52379 4.0486 4.5238 4.0486 4.5238 4.04861L6.00008 5.52544L7.47638 4.04857L7.47639 4.04857C7.50759 4.01736 7.54463 3.99261 7.5854 3.97573C7.62617 3.95884 7.66986 3.95015 7.71399 3.95015C7.75811 3.95015 7.80181 3.95884 7.84257 3.97573C7.88334 3.99261 7.92038 4.01736 7.95158 4.04857C7.98279 4.07977 8.00754 4.11681 8.02442 4.15758C8.04131 4.19834 8.05 4.24204 8.05 4.28616C8.05 4.33029 8.04131 4.37398 8.02442 4.41475C8.00754 4.45552 7.98279 4.49256 7.95158 4.52376L7.95158 4.52377L6.47471 6.00008L7.95158 7.47638L7.95158 7.47639C7.98279 7.50759 8.00754 7.54463 8.02442 7.5854C8.04131 7.62617 8.05 7.66986 8.05 7.71399C8.05 7.75811 8.04131 7.80181 8.02442 7.84257C8.00754 7.88334 7.98279 7.92038 7.95158 7.95158C7.92038 7.98279 7.88334 8.00754 7.84257 8.02442C7.80181 8.04131 7.75811 8.05 7.71399 8.05C7.66986 8.05 7.62617 8.04131 7.5854 8.02442C7.54463 8.00754 7.50759 7.98279 7.47639 7.95158L7.47638 7.95158L6.00008 6.47471L4.52377 7.95158L4.52376 7.95158C4.49256 7.98279 4.45552 8.00754 4.41475 8.02442C4.37398 8.04131 4.33029 8.05 4.28616 8.05C4.24204 8.05 4.19834 8.04131 4.15758 8.02442C4.11681 8.00754 4.07977 7.98279 4.04857 7.95158C4.01736 7.92038 3.99261 7.88334 3.97573 7.84257C3.95884 7.80181 3.95015 7.75811 3.95015 7.71399C3.95015 7.66986 3.95884 7.62617 3.97573 7.5854C3.99261 7.54463 4.01736 7.50759 4.04857 7.47639L4.04857 7.47638L5.52544 6.00008L4.04861 4.5238M4.4884 4.08392C4.46187 4.05732 4.43035 4.03621 4.39564 4.02181C4.36094 4.00741 4.32374 4 4.28616 4C4.24859 4 4.21139 4.00741 4.17668 4.02181C4.14198 4.03621 4.11046 4.05732 4.08392 4.08392L4.04861 4.04852C4.01735 4.0797 3.99255 4.11674 3.97563 4.15752C3.95871 4.1983 3.95 4.24201 3.95 4.28616C3.95 4.33031 3.95871 4.37403 3.97563 4.41481C3.99255 4.45559 4.01735 4.49263 4.04861 4.5238M4.4884 4.08392L5.96473 5.5608L4.4884 4.08392ZM4.04861 4.5238L4.04857 4.52377L4.08392 4.4884L4.04861 4.5238Z" fill="#9292A6" stroke="#9292A6" stroke-width="0.1"/>
</svg>
