<svg width="11" height="11" viewBox="0 0 11 11" fill="none" xmlns="http://www.w3.org/2000/svg">
<path fill-rule="evenodd" clip-rule="evenodd" d="M7.59599 0.0918674C7.62503 0.0627467 7.65954 0.0396427 7.69753 0.0238786C7.73552 0.00811444 7.77625 0 7.81738 0C7.85851 0 7.89923 0.00811444 7.93722 0.0238786C7.97521 0.0396427 8.00972 0.0627467 8.03877 0.0918674L9.91497 1.96807C9.94409 1.99711 9.96719 2.03162 9.98296 2.06961C9.99872 2.1076 10.0068 2.14833 10.0068 2.18946C10.0068 2.23059 9.99872 2.27132 9.98296 2.30931C9.96719 2.3473 9.94409 2.3818 9.91497 2.41085L3.66097 8.66485C3.63096 8.69465 3.59522 8.71805 3.5559 8.73364L0.428903 9.98444C0.372077 10.0072 0.309824 10.0128 0.249863 10.0005C0.189902 9.98816 0.13487 9.95853 0.0915878 9.91525C0.0483061 9.87197 0.0186787 9.81693 0.00637868 9.75697C-0.00592135 9.69701 -0.000353097 9.63476 0.0223931 9.57793L1.27319 6.45093C1.28878 6.41162 1.31219 6.37588 1.34199 6.34587L7.59599 0.0918674ZM7.00874 1.56406L8.44278 2.9981L9.25142 2.18946L7.81738 0.755417L7.00874 1.56406ZM8.00062 3.44026L6.56658 2.00622L2.50148 6.07132V6.25456H2.81418C2.89711 6.25456 2.97665 6.2875 3.03529 6.34615C3.09393 6.40479 3.12688 6.48432 3.12688 6.56726V6.87996H3.43958C3.52251 6.87996 3.60205 6.9129 3.66069 6.97155C3.71933 7.03019 3.75228 7.10972 3.75228 7.19266V7.50536H3.93552L8.00062 3.44026ZM1.89609 6.6767L1.8298 6.743L0.874188 9.13265L3.26384 8.17704L3.33013 8.11074C3.27048 8.08846 3.21906 8.04849 3.18274 7.99619C3.14641 7.94388 3.12693 7.88174 3.12688 7.81806V7.50536H2.81418C2.73125 7.50536 2.65171 7.47241 2.59307 7.41377C2.53442 7.35513 2.50148 7.27559 2.50148 7.19266V6.87996H2.18878C2.1251 6.87991 2.06295 6.86042 2.01065 6.8241C1.95835 6.78778 1.91838 6.73635 1.89609 6.6767Z" fill="#9292A6"/>
</svg>
