<svg width="16" height="8" viewBox="0 0 16 8" fill="none" xmlns="http://www.w3.org/2000/svg">
<path d="M15.816 3.504C15.816 4.528 15.504 5.376 14.88 6.048C14.272 6.72 13.464 7.056 12.456 7.056C11.88 7.056 11.288 6.912 10.68 6.624C10.088 6.32 9.616 6.024 9.264 5.736C8.928 5.448 8.48 5.032 7.92 4.488C7.776 4.6 7.512 4.832 7.128 5.184C6.744 5.52 6.448 5.768 6.24 5.928C6.048 6.072 5.776 6.256 5.424 6.48C5.088 6.688 4.752 6.84 4.416 6.936C4.08 7.016 3.728 7.056 3.36 7.056C2.368 7.056 1.56 6.728 0.936 6.072C0.312 5.4 0 4.568 0 3.576C0 2.568 0.304 1.728 0.912 1.056C1.52 0.368001 2.32 0.0240011 3.312 0.0240011C3.76 0.0240011 4.184 0.0960007 4.584 0.240001C5 0.368001 5.44 0.608001 5.904 0.960001C6.368 1.312 6.688 1.568 6.864 1.728C7.056 1.888 7.408 2.216 7.92 2.712C8 2.632 8.176 2.464 8.448 2.208C8.736 1.936 8.936 1.752 9.048 1.656C9.16 1.544 9.344 1.376 9.6 1.152C9.856 0.928 10.072 0.768001 10.248 0.672001C10.44 0.576001 10.656 0.464001 10.896 0.336001C11.152 0.208001 11.4 0.12 11.64 0.0720005C11.896 0.0240002 12.152 0 12.408 0C13.416 0 14.232 0.336 14.856 1.008C15.496 1.664 15.816 2.496 15.816 3.504ZM14.448 3.576C14.448 2.936 14.272 2.408 13.92 1.992C13.568 1.576 13.08 1.368 12.456 1.368C12.312 1.368 12.16 1.384 12 1.416C11.856 1.432 11.704 1.48 11.544 1.56C11.4 1.624 11.264 1.688 11.136 1.752C11.008 1.816 10.856 1.912 10.68 2.04C10.52 2.152 10.392 2.24 10.296 2.304C10.2 2.368 10.064 2.48 9.888 2.64C9.712 2.8 9.592 2.912 9.528 2.976C9.464 3.024 9.336 3.136 9.144 3.312C8.968 3.472 8.864 3.568 8.832 3.6C9.36 4.064 9.736 4.392 9.96 4.584C10.2 4.776 10.576 5.008 11.088 5.28C11.6 5.536 12.08 5.664 12.528 5.664C13.12 5.664 13.584 5.472 13.92 5.088C14.272 4.688 14.448 4.184 14.448 3.576ZM7.008 3.576C6.96 3.544 6.816 3.424 6.576 3.216C6.336 3.008 6.168 2.864 6.072 2.784C5.976 2.704 5.808 2.576 5.568 2.4C5.344 2.208 5.152 2.072 4.992 1.992C4.848 1.896 4.672 1.8 4.464 1.704C4.256 1.592 4.056 1.512 3.864 1.464C3.672 1.416 3.48 1.392 3.288 1.392C2.696 1.392 2.224 1.608 1.872 2.04C1.536 2.456 1.368 2.96 1.368 3.552C1.368 4.176 1.544 4.688 1.896 5.088C2.264 5.472 2.76 5.664 3.384 5.664C4.376 5.664 5.584 4.968 7.008 3.576Z" fill="#7B82FF"/>
</svg>
