<svg width="111" height="45" viewBox="0 0 111 45" fill="none" xmlns="http://www.w3.org/2000/svg">
<path d="M1.872 23V6.008H4.896V23H1.872ZM8.50144 23V11.48H11.2374V13.328H11.2854C11.5574 12.72 12.0134 12.208 12.6534 11.792C13.3094 11.36 14.0454 11.144 14.8614 11.144C16.2694 11.144 17.3254 11.6 18.0294 12.512C18.7494 13.408 19.1094 14.504 19.1094 15.8V23H16.2294V16.616C16.2294 14.568 15.5094 13.544 14.0694 13.544C13.2054 13.544 12.5414 13.856 12.0774 14.48C11.6134 15.088 11.3814 15.816 11.3814 16.664V23H8.50144ZM30.6542 12.896L28.7822 14.552C28.5102 14.2 28.1502 13.904 27.7022 13.664C27.2542 13.424 26.7742 13.304 26.2622 13.304C25.7502 13.304 25.3102 13.408 24.9422 13.616C24.5902 13.824 24.4142 14.136 24.4142 14.552C24.4142 14.952 24.5982 15.248 24.9662 15.44C25.3342 15.632 25.9822 15.84 26.9102 16.064C27.4062 16.176 27.8462 16.312 28.2302 16.472C28.6142 16.616 28.9982 16.816 29.3822 17.072C29.7822 17.328 30.0862 17.664 30.2942 18.08C30.5182 18.496 30.6302 18.968 30.6302 19.496C30.6302 20.808 30.1742 21.776 29.2622 22.4C28.3662 23.024 27.2222 23.336 25.8302 23.336C24.9182 23.336 24.0382 23.168 23.1902 22.832C22.3422 22.496 21.6462 22.032 21.1022 21.44L22.9982 19.664C23.7342 20.624 24.7182 21.104 25.9502 21.104C26.4462 21.104 26.8782 20.992 27.2462 20.768C27.6142 20.544 27.7982 20.2 27.7982 19.736C27.7982 19.288 27.5982 18.96 27.1982 18.752C26.8142 18.528 26.1342 18.304 25.1582 18.08C24.1182 17.824 23.2862 17.464 22.6622 17C22.0542 16.52 21.7502 15.792 21.7502 14.816C21.7502 13.616 22.1982 12.704 23.0942 12.08C23.9902 11.456 25.0702 11.144 26.3342 11.144C27.1982 11.144 28.0222 11.296 28.8062 11.6C29.5902 11.904 30.2062 12.336 30.6542 12.896ZM33.4943 13.784H31.4783V11.48H33.4943V8.144H36.3263V11.48H39.2063V13.784H36.3263V19.136C36.3263 19.712 36.4303 20.152 36.6383 20.456C36.8463 20.76 37.2463 20.912 37.8383 20.912C38.3343 20.912 38.7423 20.832 39.0623 20.672L39.1583 22.928C38.6143 23.136 37.9743 23.24 37.2383 23.24C35.8303 23.24 34.8543 22.88 34.3103 22.16C33.7663 21.424 33.4943 20.424 33.4943 19.16V13.784ZM48.4425 23V21.536H48.3705C48.0825 22.048 47.6105 22.472 46.9545 22.808C46.3145 23.128 45.5945 23.288 44.7945 23.288C43.6905 23.288 42.6905 23 41.7945 22.424C40.9145 21.832 40.4745 20.928 40.4745 19.712C40.4745 19.056 40.6345 18.488 40.9545 18.008C41.2905 17.512 41.7065 17.128 42.2025 16.856C42.6985 16.584 43.3145 16.368 44.0505 16.208C44.8025 16.032 45.5065 15.92 46.1625 15.872C46.8345 15.824 47.5785 15.8 48.3945 15.8V15.512C48.3945 14.84 48.1465 14.32 47.6505 13.952C47.1545 13.584 46.5225 13.4 45.7545 13.4C44.5385 13.4 43.4905 13.84 42.6105 14.72L41.1225 12.968C42.4345 11.752 44.0585 11.144 45.9945 11.144C46.9865 11.144 47.8265 11.288 48.5145 11.576C49.2185 11.848 49.7545 12.232 50.1225 12.728C50.4905 13.208 50.7465 13.72 50.8905 14.264C51.0505 14.792 51.1305 15.368 51.1305 15.992V23H48.4425ZM48.3945 18.152V17.744H47.7465C44.8185 17.744 43.3545 18.384 43.3545 19.664C43.3545 20.176 43.5465 20.544 43.9305 20.768C44.3305 20.992 44.8105 21.104 45.3705 21.104C46.3465 21.104 47.0905 20.848 47.6025 20.336C48.1305 19.808 48.3945 19.08 48.3945 18.152ZM63.4618 11.48H66.1978V21.968C66.1978 24.112 65.6538 25.776 64.5658 26.96C63.4938 28.16 61.8698 28.76 59.6938 28.76C58.7178 28.76 57.7018 28.592 56.6458 28.256C55.5898 27.92 54.7018 27.456 53.9818 26.864L55.6378 24.632C56.7738 25.72 58.1178 26.264 59.6698 26.264C62.1018 26.264 63.3178 24.944 63.3178 22.304V21.464H63.2698C62.4058 22.616 61.1498 23.192 59.5018 23.192C57.8218 23.192 56.4538 22.616 55.3978 21.464C54.3418 20.296 53.8138 18.872 53.8138 17.192C53.8138 15.48 54.3258 14.048 55.3498 12.896C56.3898 11.728 57.7578 11.144 59.4538 11.144C61.2618 11.144 62.5818 11.832 63.4138 13.208H63.4618V11.48ZM60.0538 13.496C59.0458 13.496 58.2378 13.848 57.6298 14.552C57.0378 15.24 56.7418 16.112 56.7418 17.168C56.7418 18.144 57.0378 19 57.6298 19.736C58.2378 20.456 59.0378 20.816 60.0298 20.816C61.0538 20.816 61.8778 20.464 62.5018 19.76C63.1418 19.04 63.4618 18.176 63.4618 17.168C63.4618 16.144 63.1498 15.28 62.5258 14.576C61.9018 13.856 61.0778 13.496 60.0538 13.496ZM69.6499 23V11.48H72.4099V13.4H72.4579C72.7779 12.712 73.2339 12.168 73.8259 11.768C74.4179 11.352 75.0819 11.144 75.8179 11.144C76.0899 11.144 76.3219 11.168 76.5139 11.216V13.856C76.1939 13.776 75.8979 13.736 75.6259 13.736C75.1299 13.736 74.6899 13.816 74.3059 13.976C73.9219 14.136 73.6179 14.336 73.3939 14.576C73.1859 14.816 73.0099 15.088 72.8659 15.392C72.7379 15.68 72.6499 15.944 72.6019 16.184C72.5539 16.424 72.5299 16.64 72.5299 16.832V23H69.6499ZM85.2394 23V21.536H85.1674C84.8794 22.048 84.4074 22.472 83.7514 22.808C83.1114 23.128 82.3914 23.288 81.5914 23.288C80.4874 23.288 79.4874 23 78.5914 22.424C77.7114 21.832 77.2714 20.928 77.2714 19.712C77.2714 19.056 77.4314 18.488 77.7514 18.008C78.0874 17.512 78.5034 17.128 78.9994 16.856C79.4954 16.584 80.1114 16.368 80.8474 16.208C81.5994 16.032 82.3034 15.92 82.9594 15.872C83.6314 15.824 84.3754 15.8 85.1914 15.8V15.512C85.1914 14.84 84.9434 14.32 84.4474 13.952C83.9514 13.584 83.3194 13.4 82.5514 13.4C81.3354 13.4 80.2874 13.84 79.4074 14.72L77.9194 12.968C79.2314 11.752 80.8554 11.144 82.7914 11.144C83.7834 11.144 84.6234 11.288 85.3114 11.576C86.0154 11.848 86.5514 12.232 86.9194 12.728C87.2874 13.208 87.5434 13.72 87.6874 14.264C87.8474 14.792 87.9274 15.368 87.9274 15.992V23H85.2394ZM85.1914 18.152V17.744H84.5434C81.6154 17.744 80.1514 18.384 80.1514 19.664C80.1514 20.176 80.3434 20.544 80.7274 20.768C81.1274 20.992 81.6074 21.104 82.1674 21.104C83.1434 21.104 83.8874 20.848 84.3994 20.336C84.9274 19.808 85.1914 19.08 85.1914 18.152ZM105.035 11.144C106.443 11.144 107.499 11.6 108.203 12.512C108.923 13.408 109.283 14.504 109.283 15.8V23H106.403V16.616C106.403 14.568 105.683 13.544 104.243 13.544C103.411 13.544 102.779 13.864 102.347 14.504C101.915 15.128 101.699 15.864 101.699 16.712V23H98.8187V16.04C98.8187 15.288 98.6347 14.688 98.2667 14.24C97.9147 13.776 97.3867 13.544 96.6827 13.544C95.8667 13.544 95.2427 13.856 94.8107 14.48C94.3787 15.088 94.1627 15.816 94.1627 16.664V23H91.2827V11.48H94.0187V13.328H94.0667C94.3387 12.704 94.7867 12.184 95.4107 11.768C96.0347 11.352 96.7787 11.144 97.6427 11.144C99.3227 11.144 100.523 11.872 101.243 13.328C102.043 11.872 103.307 11.144 105.035 11.144Z" fill="#080A39"/>
<path d="M1.316 42V32.088H2.324V36.54H2.338L7.056 32.088H8.498L3.5 36.582L8.778 42H7.294L2.338 36.722H2.324V42H1.316ZM11.829 42.168C11.241 42.168 10.7137 42.0047 10.247 41.678C9.78968 41.342 9.56102 40.8427 9.56102 40.18C9.56102 39.8533 9.61702 39.5687 9.72902 39.326C9.84102 39.074 10.009 38.8687 10.233 38.71C10.457 38.5513 10.6997 38.4253 10.961 38.332C11.2223 38.2293 11.5443 38.1547 11.927 38.108C12.3097 38.052 12.6643 38.0193 12.991 38.01C13.327 37.9913 13.7237 37.982 14.181 37.982V37.772C14.181 36.6427 13.5977 36.078 12.431 36.078C11.647 36.078 10.9983 36.3347 10.485 36.848L9.95302 36.218C10.5783 35.5927 11.437 35.28 12.529 35.28C13.2757 35.28 13.887 35.4853 14.363 35.896C14.839 36.3067 15.077 36.8947 15.077 37.66V40.53C15.077 41.118 15.1143 41.608 15.189 42H14.335C14.2697 41.6267 14.237 41.272 14.237 40.936H14.209C13.6397 41.7573 12.8463 42.168 11.829 42.168ZM12.081 41.384C12.725 41.384 13.2337 41.174 13.607 40.754C13.9897 40.334 14.181 39.8207 14.181 39.214V38.724H13.901C13.453 38.724 13.0517 38.7427 12.697 38.78C12.3517 38.808 12.0017 38.8687 11.647 38.962C11.3017 39.0553 11.031 39.2 10.835 39.396C10.639 39.592 10.541 39.8393 10.541 40.138C10.541 40.5673 10.6903 40.8847 10.989 41.09C11.2877 41.286 11.6517 41.384 12.081 41.384ZM17.5295 42V35.448H18.4815V38.192H22.2475V35.448H23.1995V42H22.2475V38.99H18.4815V42H17.5295ZM27.497 42.168C26.909 42.168 26.3817 42.0047 25.915 41.678C25.4577 41.342 25.229 40.8427 25.229 40.18C25.229 39.8533 25.285 39.5687 25.397 39.326C25.509 39.074 25.677 38.8687 25.901 38.71C26.125 38.5513 26.3677 38.4253 26.629 38.332C26.8903 38.2293 27.2123 38.1547 27.595 38.108C27.9777 38.052 28.3323 38.0193 28.659 38.01C28.995 37.9913 29.3917 37.982 29.849 37.982V37.772C29.849 36.6427 29.2657 36.078 28.099 36.078C27.315 36.078 26.6663 36.3347 26.153 36.848L25.621 36.218C26.2463 35.5927 27.105 35.28 28.197 35.28C28.9437 35.28 29.555 35.4853 30.031 35.896C30.507 36.3067 30.745 36.8947 30.745 37.66V40.53C30.745 41.118 30.7823 41.608 30.857 42H30.003C29.9377 41.6267 29.905 41.272 29.905 40.936H29.877C29.3077 41.7573 28.5143 42.168 27.497 42.168ZM27.749 41.384C28.393 41.384 28.9017 41.174 29.275 40.754C29.6577 40.334 29.849 39.8207 29.849 39.214V38.724H29.569C29.121 38.724 28.7197 38.7427 28.365 38.78C28.0197 38.808 27.6697 38.8687 27.315 38.962C26.9697 39.0553 26.699 39.2 26.503 39.396C26.307 39.592 26.209 39.8393 26.209 40.138C26.209 40.5673 26.3583 40.8847 26.657 41.09C26.9557 41.286 27.3197 41.384 27.749 41.384ZM32.7775 42.07C32.5068 42.07 32.2688 42.042 32.0635 41.986L32.1755 41.16C32.3155 41.2067 32.4648 41.23 32.6235 41.23C33.1368 41.23 33.5148 40.9593 33.7575 40.418C34.0095 39.8673 34.1355 38.948 34.1355 37.66V35.448H38.8255V42H37.8735V36.246H35.0595V37.996C35.0595 39.312 34.8822 40.32 34.5275 41.02C34.1822 41.72 33.5988 42.07 32.7775 42.07ZM41.3459 42V35.448H42.2979V37.912H43.8799C44.6919 37.912 45.3219 38.0893 45.7699 38.444C46.2273 38.7987 46.4559 39.3073 46.4559 39.97C46.4559 40.6233 46.2319 41.1273 45.7839 41.482C45.3453 41.8273 44.7153 42 43.8939 42H41.3459ZM42.2979 41.174H43.9919C44.9813 41.174 45.4759 40.7727 45.4759 39.97C45.4759 39.13 44.9813 38.71 43.9919 38.71H42.2979V41.174ZM47.7439 42V35.448H48.6959V42H47.7439Z" fill="#9292A6"/>
</svg>
