<svg width="56" height="56" viewBox="0 0 56 56" fill="none" xmlns="http://www.w3.org/2000/svg">
<circle cx="28" cy="28" r="28" fill="#7B82FF"/>
<path d="M14.5195 22.8245C14.6112 22.1768 14.6811 21.5255 14.7977 20.8825C15.4584 17.2408 18.0366 14.763 21.723 14.6361C26.1615 14.4836 30.6135 14.4755 35.0513 14.6354C39.0636 14.7798 41.9693 17.7507 42.0946 21.7643C42.2279 26.0261 42.2279 30.2984 42.0946 34.5602C41.9693 38.5738 39.0646 41.5443 35.0517 41.6891C30.6138 41.8493 26.1609 41.8534 21.7233 41.6867C17.7104 41.5359 14.9364 38.5583 14.668 34.5387C14.6448 34.191 14.5703 33.8463 14.5195 33.5004C14.5195 29.9416 14.5195 26.3829 14.5195 22.8245V22.8245ZM28.3608 39.3104C30.3918 39.3104 32.4248 39.3712 34.4531 39.2963C37.6332 39.1784 39.5893 37.2805 39.6635 34.1033C39.7556 30.1445 39.7556 26.1803 39.6635 22.2212C39.5893 19.0447 37.6319 17.1024 34.4531 17.0349C30.4183 16.9496 26.3792 16.9502 22.3445 17.0349C19.1898 17.1011 17.2281 19.004 17.1424 22.1456C17.0336 26.1544 17.0336 30.1704 17.1424 34.1792C17.2281 37.3204 19.1898 39.1794 22.3448 39.2963C24.3476 39.3709 26.3554 39.3104 28.3608 39.3104V39.3104Z" fill="white"/>
<path d="M28.3579 21.1133C24.4632 21.1133 21.3055 24.2706 21.3055 28.1653C21.3055 32.0603 24.4632 35.2176 28.3579 35.2176C32.2529 35.2176 35.4102 32.0603 35.4102 28.1653C35.4102 24.2706 32.2529 21.1133 28.3579 21.1133ZM28.3579 32.7895C25.8039 32.7895 23.7336 30.7193 23.7336 28.1653C23.7336 25.6113 25.8039 23.541 28.3579 23.541C30.9119 23.541 32.9821 25.6113 32.9821 28.1653C32.9821 30.7193 30.9119 32.7895 28.3579 32.7895Z" fill="white"/>
<path d="M37.4989 20.7912C37.4989 21.7177 36.7478 22.4688 35.8214 22.4688C34.8949 22.4688 34.1434 21.7177 34.1434 20.7912C34.1434 19.8644 34.8949 19.1133 35.8214 19.1133C36.7478 19.1133 37.4989 19.8644 37.4989 20.7912Z" fill="white"/>
</svg>
