<svg width="12" height="12" viewBox="0 0 12 12" fill="none" xmlns="http://www.w3.org/2000/svg">
<path fill-rule="evenodd" clip-rule="evenodd" d="M2.34479 3.92057C1.66579 5.09663 1.59428 6.45773 2.03498 7.63867C2.05728 7.69292 2.06845 7.7511 2.06782 7.80975C2.06718 7.8684 2.05476 7.92632 2.0313 7.98008C2.00783 8.03383 1.97379 8.08232 1.93121 8.12266C1.88862 8.16299 1.83837 8.19435 1.78342 8.21488C1.72847 8.2354 1.66996 8.24466 1.61136 8.24212C1.55276 8.23957 1.49527 8.22527 1.44231 8.20006C1.38935 8.17486 1.342 8.13926 1.30308 8.09538C1.26415 8.0515 1.23444 8.00025 1.21572 7.94466C0.864312 7.002 0.791051 5.97824 1.00466 4.99514C1.21826 4.01204 1.70974 3.11098 2.42064 2.39913C3.13154 1.68729 4.03195 1.19461 5.01476 0.979692C5.99757 0.764778 7.02143 0.836674 7.96456 1.18683L7.51963 1.95748C6.56295 1.63842 5.52543 1.65952 4.58251 2.01721C3.6396 2.37491 2.84913 3.04726 2.34479 3.92057ZM4.74767 10.2587C5.53115 10.5197 6.3725 10.5538 7.17453 10.357C7.97655 10.1601 8.70652 9.74038 9.28011 9.14624C9.85369 8.55211 10.2475 7.80782 10.416 6.99936C10.5845 6.1909 10.5208 5.35127 10.2323 4.57747C10.21 4.52322 10.1988 4.46504 10.1995 4.40639C10.2001 4.34774 10.2125 4.28981 10.236 4.23606C10.2595 4.1823 10.2935 4.13382 10.3361 4.09348C10.3787 4.05315 10.4289 4.02178 10.4839 4.00126C10.5388 3.98074 10.5973 3.97147 10.6559 3.97402C10.7145 3.97656 10.772 3.99087 10.825 4.01607C10.8779 4.04128 10.9253 4.07688 10.9642 4.12076C11.0031 4.16463 11.0329 4.21589 11.0516 4.27147C11.403 5.21414 11.4762 6.2379 11.2626 7.221C11.049 8.2041 10.5576 9.10515 9.84665 9.817C9.13575 10.5288 8.23535 11.0215 7.25254 11.2364C6.26973 11.4514 5.24586 11.3795 4.30273 11.0293L4.74767 10.2587Z" fill="#9292A6"/>
</svg>
