<svg width="18" height="18" viewBox="0 0 18 18" fill="none" xmlns="http://www.w3.org/2000/svg">
<path fill-rule="evenodd" clip-rule="evenodd" d="M9.94106 1.82869C9.66431 0.889313 8.33456 0.889313 8.05781 1.82869L7.95206 2.18756C7.86313 2.489 7.70788 2.76673 7.49771 3.0004C7.28754 3.23407 7.02775 3.41777 6.73739 3.53803C6.44702 3.6583 6.13343 3.71209 5.81959 3.69546C5.50574 3.67883 5.19959 3.59221 4.92356 3.44194L4.59506 3.26194C3.73556 2.79506 2.79506 3.73444 3.26306 4.59506L3.44194 4.92356C3.59221 5.19959 3.67883 5.50575 3.69546 5.81959C3.71209 6.13344 3.6583 6.44702 3.53803 6.73739C3.41777 7.02775 3.23407 7.28754 3.0004 7.49771C2.76673 7.70788 2.489 7.86313 2.18756 7.95206L1.82869 8.05781C0.889312 8.33456 0.889312 9.66431 1.82869 9.94106L2.18756 10.0468C2.48916 10.1357 2.76704 10.291 3.00082 10.5012C3.23461 10.7115 3.41838 10.9714 3.53866 11.2619C3.65895 11.5524 3.71269 11.8662 3.69595 12.1801C3.67921 12.4941 3.59242 12.8004 3.44194 13.0764L3.26194 13.4038C2.79506 14.2633 3.73444 15.2038 4.59506 14.7358L4.92356 14.5569C5.19967 14.4067 5.50589 14.3201 5.8198 14.3035C6.13371 14.287 6.44734 14.3409 6.73772 14.4613C7.0281 14.5816 7.28787 14.7655 7.49799 14.9993C7.70811 15.2331 7.86325 15.5109 7.95206 15.8124L8.05781 16.1702C8.33456 17.1096 9.66431 17.1096 9.94106 16.1702L10.0468 15.8113C10.1357 15.5097 10.291 15.2318 10.5012 14.9981C10.7115 14.7643 10.9714 14.5805 11.2619 14.4602C11.5524 14.3399 11.8662 14.2862 12.1801 14.3029C12.4941 14.3197 12.8004 14.4065 13.0764 14.5569L13.4038 14.7369C14.2633 15.2038 15.2038 14.2644 14.7358 13.4038L14.5569 13.0764C14.4065 12.8003 14.3197 12.494 14.3031 12.1799C14.2864 11.8659 14.3402 11.5521 14.4606 11.2616C14.581 10.971 14.7649 10.7112 14.9988 10.501C15.2327 10.2908 15.5107 10.1356 15.8124 10.0468L16.1702 9.94106C17.1096 9.66431 17.1096 8.33456 16.1702 8.05781L15.8113 7.95206C15.5099 7.86313 15.2321 7.70788 14.9985 7.49771C14.7648 7.28754 14.5811 7.02775 14.4608 6.73739C14.3406 6.44702 14.2868 6.13344 14.3034 5.81959C14.32 5.50575 14.4067 5.19959 14.5569 4.92356L14.7369 4.59506C15.2038 3.73556 14.2644 2.79506 13.4038 3.26306L13.0764 3.44194C12.8003 3.59263 12.494 3.6796 12.1799 3.69644C11.8657 3.71329 11.5518 3.6596 11.2612 3.5393C10.9705 3.419 10.7105 3.23516 10.5002 3.00125C10.2898 2.76735 10.1345 2.48932 10.0457 2.18756L9.93994 1.82869H9.94106ZM6.97894 1.51031C7.57181 -0.503438 10.4271 -0.503438 11.0199 1.51031L11.1257 1.86919C11.1671 2.00976 11.2394 2.13928 11.3374 2.24827C11.4354 2.35725 11.5565 2.44293 11.6919 2.49902C11.8272 2.55512 11.9735 2.5802 12.1198 2.57245C12.2661 2.56469 12.4089 2.52428 12.5376 2.45419L12.8661 2.27419C14.7111 1.27069 16.7293 3.28781 15.7236 5.13281L15.5447 5.46131C15.4746 5.59 15.4342 5.73275 15.4264 5.87909C15.4187 6.02542 15.4438 6.17164 15.4999 6.30702C15.5559 6.4424 15.6416 6.56352 15.7506 6.66148C15.8596 6.75945 15.9891 6.83178 16.1297 6.87319L16.4886 6.97894C18.5023 7.57181 18.5023 10.4271 16.4886 11.0199L16.1297 11.1257C15.9891 11.1671 15.8596 11.2394 15.7506 11.3374C15.6416 11.4354 15.5559 11.5565 15.4999 11.6919C15.4438 11.8272 15.4187 11.9735 15.4264 12.1198C15.4342 12.2661 15.4746 12.4089 15.5447 12.5376L15.7247 12.8661C16.7293 14.7111 14.7099 16.7293 12.8661 15.7236L12.5376 15.5447C12.4089 15.4746 12.2661 15.4342 12.1198 15.4264C11.9735 15.4187 11.8272 15.4438 11.6919 15.4999C11.5565 15.5559 11.4354 15.6416 11.3374 15.7506C11.2394 15.8596 11.1671 15.9891 11.1257 16.1297L11.0199 16.4886C10.4271 18.5023 7.57181 18.5023 6.97894 16.4886L6.87319 16.1297C6.83178 15.9891 6.75945 15.8596 6.66148 15.7506C6.56352 15.6416 6.4424 15.5559 6.30702 15.4999C6.17164 15.4438 6.02542 15.4187 5.87909 15.4264C5.73275 15.4342 5.59 15.4746 5.46131 15.5447L5.13281 15.7247C3.28781 16.7293 1.27069 14.7099 2.27531 12.8661L2.45419 12.5376C2.52428 12.4089 2.56469 12.2661 2.57244 12.1198C2.5802 11.9735 2.55512 11.8272 2.49902 11.6919C2.44293 11.5565 2.35725 11.4354 2.24827 11.3374C2.13928 11.2394 2.00976 11.1671 1.86919 11.1257L1.51031 11.0199C-0.503437 10.4271 -0.503437 7.57181 1.51031 6.97894L1.86919 6.87319C2.00976 6.83178 2.13928 6.75945 2.24827 6.66148C2.35725 6.56352 2.44293 6.4424 2.49902 6.30702C2.55512 6.17164 2.5802 6.02542 2.57244 5.87909C2.56469 5.73275 2.52428 5.59 2.45419 5.46131L2.27419 5.13281C1.27069 3.28781 3.28894 1.27069 5.13281 2.27531L5.46131 2.45419C5.59 2.52428 5.73275 2.56469 5.87909 2.57245C6.02542 2.5802 6.17164 2.55512 6.30702 2.49902C6.4424 2.44293 6.56352 2.35725 6.66148 2.24827C6.75945 2.13928 6.83178 2.00976 6.87319 1.86919L6.97894 1.51031V1.51031Z" fill="#7B82FF"/>
<path fill-rule="evenodd" clip-rule="evenodd" d="M8.99111 6.46484C8.32097 6.46484 7.67828 6.73105 7.20442 7.20491C6.73057 7.67877 6.46436 8.32146 6.46436 8.99159C6.46436 9.66173 6.73057 10.3044 7.20442 10.7783C7.67828 11.2521 8.32097 11.5183 8.99111 11.5183C9.66124 11.5183 10.3039 11.2521 10.7778 10.7783C11.2516 10.3044 11.5179 9.66173 11.5179 8.99159C11.5179 8.32146 11.2516 7.67877 10.7778 7.20491C10.3039 6.73105 9.66124 6.46484 8.99111 6.46484V6.46484ZM5.33936 8.99159C5.33936 8.51204 5.43381 8.03718 5.61733 7.59413C5.80085 7.15108 6.06983 6.74851 6.40893 6.40942C6.74802 6.07032 7.15059 5.80133 7.59364 5.61782C8.03669 5.4343 8.51155 5.33984 8.99111 5.33984C9.47066 5.33984 9.94552 5.4343 10.3886 5.61782C10.8316 5.80133 11.2342 6.07032 11.5733 6.40942C11.9124 6.74851 12.1814 7.15108 12.3649 7.59413C12.5484 8.03718 12.6429 8.51204 12.6429 8.99159C12.6429 9.9601 12.2581 10.8889 11.5733 11.5738C10.8884 12.2586 9.95961 12.6433 8.99111 12.6433C8.0226 12.6433 7.09376 12.2586 6.40893 11.5738C5.72409 10.8889 5.33936 9.9601 5.33936 8.99159V8.99159Z" fill="#7B82FF"/>
</svg>
