<svg width="11" height="13" viewBox="0 0 11 13" fill="none" xmlns="http://www.w3.org/2000/svg">
<path fill-rule="evenodd" clip-rule="evenodd" d="M3.13149 3.00781C2.28601 3.47598 1.61934 4.21092 1.23557 5.09789C0.851788 5.98487 0.772502 6.97396 1.01009 7.91074C1.24767 8.84753 1.78875 9.67928 2.54886 10.2762C3.30897 10.873 4.24531 11.2014 5.21172 11.21C6.17812 11.2187 7.12019 10.9071 7.89085 10.3239C8.6615 9.74072 9.21737 8.91877 9.47166 7.98639C9.72596 7.054 9.66436 6.06365 9.2965 5.16995C8.92864 4.27626 8.27522 3.52952 7.43824 3.04631L7.87574 2.28856C8.87995 2.86856 9.66386 3.76472 10.1051 4.83716C10.5464 5.90959 10.6201 7.09795 10.3149 8.21671C10.0096 9.33548 9.34251 10.3217 8.41773 11.0214C7.49295 11.7211 6.36252 12.095 5.20291 12.0846C4.04329 12.0742 2.91975 11.6801 2.00767 10.9639C1.09559 10.2477 0.446308 9.24969 0.161173 8.12563C-0.123962 7.00156 -0.0289012 5.81472 0.431517 4.75038C0.891934 3.68603 1.6918 2.80407 2.70624 2.24219L3.13149 3.00781Z" fill="#9292A6"/>
<path fill-rule="evenodd" clip-rule="evenodd" d="M4.8125 6.125V0H5.6875V6.125H4.8125Z" fill="#9292A6"/>
</svg>
