<svg width="56" height="56" viewBox="0 0 56 56" fill="none" xmlns="http://www.w3.org/2000/svg">
<circle cx="28" cy="28" r="28" fill="#7B82FF"/>
<path d="M16 40L17.8209 33.7883C16.65 31.8776 16.0334 29.7037 16.0334 27.4704C16.0334 20.5942 21.8577 15 29.0168 15C36.1758 15 42 20.5942 42 27.4704C42 34.3466 36.1758 39.9408 29.0168 39.9408C26.7861 39.9408 24.6018 39.3924 22.6694 38.351L16 40ZM23.0104 36.0823L23.4078 36.3154C25.0926 37.3033 27.0322 37.8254 29.0168 37.8254C34.9614 37.8254 39.7976 33.1802 39.7976 27.4704C39.7976 21.7607 34.9614 17.1154 29.0168 17.1154C23.0722 17.1154 18.2358 21.7607 18.2358 27.4704C18.2358 29.4599 18.8245 31.3919 19.9381 33.0575L20.2058 33.4578L19.1572 37.035L23.0104 36.0823Z" fill="white"/>
<path d="M25.6549 22.0463L24.8881 22.0015C24.6473 21.9874 24.4111 22.0736 24.229 22.243C23.8573 22.5889 23.263 23.2575 23.0804 24.1288C22.8082 25.4279 23.2289 27.0187 24.3178 28.6094C25.4066 30.2002 27.4358 32.7455 31.024 33.8325C32.1803 34.1828 33.0899 33.9467 33.7917 33.4657C34.3475 33.0848 34.7307 32.4734 34.8687 31.7822L34.9912 31.1696C35.0301 30.9748 34.9378 30.7773 34.769 30.6939L32.1776 29.4142C32.0094 29.3312 31.8099 29.3837 31.6968 29.5408L30.6795 30.9537C30.6026 31.0604 30.4711 31.1027 30.3523 31.058C29.6556 30.7957 27.322 29.7486 26.0415 27.106C25.986 26.9914 25.9998 26.8523 26.0786 26.7545L27.0508 25.5495C27.1501 25.4264 27.1752 25.2534 27.1155 25.1039L25.9985 22.3041C25.9391 22.155 25.8058 22.0551 25.6549 22.0463Z" fill="white"/>
</svg>
