<svg width="114" height="45" viewBox="0 0 114 45" fill="none" xmlns="http://www.w3.org/2000/svg">
<path d="M5.112 23L0.144 6.008H3.456L6.744 18.488H6.792L10.536 6.008H13.656L17.328 18.488H17.376L20.736 6.008H23.952L18.984 23H16.056L12.072 10.256H12.024L8.04 23H5.112ZM32.2298 11.144C33.6378 11.144 34.6938 11.6 35.3978 12.512C36.1178 13.408 36.4778 14.504 36.4778 15.8V23H33.5978V16.664C33.5978 14.632 32.8858 13.616 31.4618 13.616C30.5978 13.616 29.9258 13.928 29.4458 14.552C28.9818 15.16 28.7498 15.88 28.7498 16.712V23H25.8698V4.856H28.7498V13.088H28.7978C29.0538 12.56 29.4858 12.104 30.0938 11.72C30.7178 11.336 31.4298 11.144 32.2298 11.144ZM46.9894 23V21.536H46.9174C46.6294 22.048 46.1574 22.472 45.5014 22.808C44.8614 23.128 44.1414 23.288 43.3414 23.288C42.2374 23.288 41.2374 23 40.3414 22.424C39.4614 21.832 39.0214 20.928 39.0214 19.712C39.0214 19.056 39.1814 18.488 39.5014 18.008C39.8374 17.512 40.2534 17.128 40.7494 16.856C41.2454 16.584 41.8614 16.368 42.5974 16.208C43.3494 16.032 44.0534 15.92 44.7094 15.872C45.3814 15.824 46.1254 15.8 46.9414 15.8V15.512C46.9414 14.84 46.6934 14.32 46.1974 13.952C45.7014 13.584 45.0694 13.4 44.3014 13.4C43.0854 13.4 42.0374 13.84 41.1574 14.72L39.6694 12.968C40.9814 11.752 42.6054 11.144 44.5414 11.144C45.5334 11.144 46.3734 11.288 47.0614 11.576C47.7654 11.848 48.3014 12.232 48.6694 12.728C49.0374 13.208 49.2934 13.72 49.4374 14.264C49.5974 14.792 49.6774 15.368 49.6774 15.992V23H46.9894ZM46.9414 18.152V17.744H46.2934C43.3654 17.744 41.9014 18.384 41.9014 19.664C41.9014 20.176 42.0934 20.544 42.4774 20.768C42.8774 20.992 43.3574 21.104 43.9174 21.104C44.8934 21.104 45.6374 20.848 46.1494 20.336C46.6774 19.808 46.9414 19.08 46.9414 18.152ZM53.1583 13.784H51.1423V11.48H53.1583V8.144H55.9903V11.48H58.8703V13.784H55.9903V19.136C55.9903 19.712 56.0943 20.152 56.3023 20.456C56.5103 20.76 56.9103 20.912 57.5023 20.912C57.9983 20.912 58.4063 20.832 58.7263 20.672L58.8223 22.928C58.2783 23.136 57.6383 23.24 56.9023 23.24C55.4943 23.24 54.5183 22.88 53.9743 22.16C53.4303 21.424 53.1583 20.424 53.1583 19.16V13.784ZM69.1386 12.896L67.2666 14.552C66.9946 14.2 66.6346 13.904 66.1866 13.664C65.7386 13.424 65.2586 13.304 64.7466 13.304C64.2346 13.304 63.7946 13.408 63.4266 13.616C63.0746 13.824 62.8986 14.136 62.8986 14.552C62.8986 14.952 63.0826 15.248 63.4506 15.44C63.8186 15.632 64.4666 15.84 65.3946 16.064C65.8906 16.176 66.3306 16.312 66.7146 16.472C67.0986 16.616 67.4826 16.816 67.8666 17.072C68.2666 17.328 68.5706 17.664 68.7786 18.08C69.0026 18.496 69.1146 18.968 69.1146 19.496C69.1146 20.808 68.6586 21.776 67.7466 22.4C66.8506 23.024 65.7066 23.336 64.3146 23.336C63.4026 23.336 62.5226 23.168 61.6746 22.832C60.8266 22.496 60.1306 22.032 59.5866 21.44L61.4826 19.664C62.2186 20.624 63.2026 21.104 64.4346 21.104C64.9306 21.104 65.3626 20.992 65.7306 20.768C66.0986 20.544 66.2826 20.2 66.2826 19.736C66.2826 19.288 66.0826 18.96 65.6826 18.752C65.2986 18.528 64.6186 18.304 63.6426 18.08C62.6026 17.824 61.7706 17.464 61.1466 17C60.5386 16.52 60.2346 15.792 60.2346 14.816C60.2346 13.616 60.6826 12.704 61.5786 12.08C62.4746 11.456 63.5546 11.144 64.8186 11.144C65.6826 11.144 66.5066 11.296 67.2906 11.6C68.0746 11.904 68.6906 12.336 69.1386 12.896ZM78.7706 23V21.536H78.6986C78.4106 22.048 77.9386 22.472 77.2826 22.808C76.6426 23.128 75.9226 23.288 75.1226 23.288C74.0186 23.288 73.0186 23 72.1226 22.424C71.2426 21.832 70.8026 20.928 70.8026 19.712C70.8026 19.056 70.9626 18.488 71.2826 18.008C71.6186 17.512 72.0346 17.128 72.5306 16.856C73.0266 16.584 73.6426 16.368 74.3786 16.208C75.1306 16.032 75.8346 15.92 76.4906 15.872C77.1626 15.824 77.9066 15.8 78.7226 15.8V15.512C78.7226 14.84 78.4746 14.32 77.9786 13.952C77.4826 13.584 76.8506 13.4 76.0826 13.4C74.8666 13.4 73.8186 13.84 72.9386 14.72L71.4506 12.968C72.7626 11.752 74.3866 11.144 76.3226 11.144C77.3146 11.144 78.1546 11.288 78.8426 11.576C79.5466 11.848 80.0826 12.232 80.4506 12.728C80.8186 13.208 81.0746 13.72 81.2186 14.264C81.3786 14.792 81.4586 15.368 81.4586 15.992V23H78.7706ZM78.7226 18.152V17.744H78.0746C75.1466 17.744 73.6826 18.384 73.6826 19.664C73.6826 20.176 73.8746 20.544 74.2586 20.768C74.6586 20.992 75.1386 21.104 75.6986 21.104C76.6746 21.104 77.4186 20.848 77.9306 20.336C78.4586 19.808 78.7226 19.08 78.7226 18.152ZM84.8139 11.48H87.5739V13.088H87.6459C87.9819 12.56 88.4859 12.104 89.1579 11.72C89.8459 11.336 90.6699 11.144 91.6299 11.144C93.2619 11.144 94.5979 11.72 95.6379 12.872C96.6939 14.024 97.2219 15.464 97.2219 17.192C97.2219 18.92 96.7019 20.376 95.6619 21.56C94.6379 22.744 93.2699 23.336 91.5579 23.336C90.7579 23.336 90.0139 23.168 89.3259 22.832C88.6379 22.496 88.1099 22.04 87.7419 21.464H87.6939V28.76H84.8139V11.48ZM93.4059 19.808C93.9979 19.056 94.2939 18.184 94.2939 17.192C94.2939 16.2 93.9979 15.336 93.4059 14.6C92.8299 13.864 92.0219 13.496 90.9819 13.496C89.9739 13.496 89.1579 13.88 88.5339 14.648C87.9099 15.416 87.5979 16.28 87.5979 17.24C87.5979 18.2 87.9099 19.056 88.5339 19.808C89.1579 20.56 89.9739 20.936 90.9819 20.936C92.0219 20.936 92.8299 20.56 93.4059 19.808ZM100.001 11.48H102.761V13.088H102.833C103.169 12.56 103.673 12.104 104.345 11.72C105.033 11.336 105.857 11.144 106.817 11.144C108.449 11.144 109.785 11.72 110.825 12.872C111.881 14.024 112.409 15.464 112.409 17.192C112.409 18.92 111.889 20.376 110.849 21.56C109.825 22.744 108.457 23.336 106.745 23.336C105.945 23.336 105.201 23.168 104.513 22.832C103.825 22.496 103.297 22.04 102.929 21.464H102.881V28.76H100.001V11.48ZM108.593 19.808C109.185 19.056 109.481 18.184 109.481 17.192C109.481 16.2 109.185 15.336 108.593 14.6C108.017 13.864 107.209 13.496 106.169 13.496C105.161 13.496 104.345 13.88 103.721 14.648C103.097 15.416 102.785 16.28 102.785 17.24C102.785 18.2 103.097 19.056 103.721 19.808C104.345 20.56 105.161 20.936 106.169 20.936C107.209 20.936 108.017 20.56 108.593 19.808Z" fill="#080A39"/>
<path d="M1.316 42V32.088H2.324V36.54H2.338L7.056 32.088H8.498L3.5 36.582L8.778 42H7.294L2.338 36.722H2.324V42H1.316ZM11.829 42.168C11.241 42.168 10.7137 42.0047 10.247 41.678C9.78968 41.342 9.56102 40.8427 9.56102 40.18C9.56102 39.8533 9.61702 39.5687 9.72902 39.326C9.84102 39.074 10.009 38.8687 10.233 38.71C10.457 38.5513 10.6997 38.4253 10.961 38.332C11.2223 38.2293 11.5443 38.1547 11.927 38.108C12.3097 38.052 12.6643 38.0193 12.991 38.01C13.327 37.9913 13.7237 37.982 14.181 37.982V37.772C14.181 36.6427 13.5977 36.078 12.431 36.078C11.647 36.078 10.9983 36.3347 10.485 36.848L9.95302 36.218C10.5783 35.5927 11.437 35.28 12.529 35.28C13.2757 35.28 13.887 35.4853 14.363 35.896C14.839 36.3067 15.077 36.8947 15.077 37.66V40.53C15.077 41.118 15.1143 41.608 15.189 42H14.335C14.2697 41.6267 14.237 41.272 14.237 40.936H14.209C13.6397 41.7573 12.8463 42.168 11.829 42.168ZM12.081 41.384C12.725 41.384 13.2337 41.174 13.607 40.754C13.9897 40.334 14.181 39.8207 14.181 39.214V38.724H13.901C13.453 38.724 13.0517 38.7427 12.697 38.78C12.3517 38.808 12.0017 38.8687 11.647 38.962C11.3017 39.0553 11.031 39.2 10.835 39.396C10.639 39.592 10.541 39.8393 10.541 40.138C10.541 40.5673 10.6903 40.8847 10.989 41.09C11.2877 41.286 11.6517 41.384 12.081 41.384ZM17.5295 42V35.448H18.4815V38.192H22.2475V35.448H23.1995V42H22.2475V38.99H18.4815V42H17.5295ZM27.497 42.168C26.909 42.168 26.3817 42.0047 25.915 41.678C25.4577 41.342 25.229 40.8427 25.229 40.18C25.229 39.8533 25.285 39.5687 25.397 39.326C25.509 39.074 25.677 38.8687 25.901 38.71C26.125 38.5513 26.3677 38.4253 26.629 38.332C26.8903 38.2293 27.2123 38.1547 27.595 38.108C27.9777 38.052 28.3323 38.0193 28.659 38.01C28.995 37.9913 29.3917 37.982 29.849 37.982V37.772C29.849 36.6427 29.2657 36.078 28.099 36.078C27.315 36.078 26.6663 36.3347 26.153 36.848L25.621 36.218C26.2463 35.5927 27.105 35.28 28.197 35.28C28.9437 35.28 29.555 35.4853 30.031 35.896C30.507 36.3067 30.745 36.8947 30.745 37.66V40.53C30.745 41.118 30.7823 41.608 30.857 42H30.003C29.9377 41.6267 29.905 41.272 29.905 40.936H29.877C29.3077 41.7573 28.5143 42.168 27.497 42.168ZM27.749 41.384C28.393 41.384 28.9017 41.174 29.275 40.754C29.6577 40.334 29.849 39.8207 29.849 39.214V38.724H29.569C29.121 38.724 28.7197 38.7427 28.365 38.78C28.0197 38.808 27.6697 38.8687 27.315 38.962C26.9697 39.0553 26.699 39.2 26.503 39.396C26.307 39.592 26.209 39.8393 26.209 40.138C26.209 40.5673 26.3583 40.8847 26.657 41.09C26.9557 41.286 27.3197 41.384 27.749 41.384ZM32.7775 42.07C32.5068 42.07 32.2688 42.042 32.0635 41.986L32.1755 41.16C32.3155 41.2067 32.4648 41.23 32.6235 41.23C33.1368 41.23 33.5148 40.9593 33.7575 40.418C34.0095 39.8673 34.1355 38.948 34.1355 37.66V35.448H38.8255V42H37.8735V36.246H35.0595V37.996C35.0595 39.312 34.8822 40.32 34.5275 41.02C34.1822 41.72 33.5988 42.07 32.7775 42.07ZM41.3459 42V35.448H42.2979V37.912H43.8799C44.6919 37.912 45.3219 38.0893 45.7699 38.444C46.2273 38.7987 46.4559 39.3073 46.4559 39.97C46.4559 40.6233 46.2319 41.1273 45.7839 41.482C45.3453 41.8273 44.7153 42 43.8939 42H41.3459ZM42.2979 41.174H43.9919C44.9813 41.174 45.4759 40.7727 45.4759 39.97C45.4759 39.13 44.9813 38.71 43.9919 38.71H42.2979V41.174ZM47.7439 42V35.448H48.6959V42H47.7439Z" fill="#9292A6"/>
</svg>
